<svg width="29" height="29" viewBox="0 0 29 29" fill="none" xmlns="http://www.w3.org/2000/svg">
<g id="icomoon-free:stats-dots" clip-path="url(#clip0_2638_6487)">
<path id="Vector" d="M17.2143 24.635L25.9426 9.51717L28.1023 10.7641L18.1271 28.0416L0.849609 18.0664L2.09651 15.9067L17.2143 24.635ZM17.6931 21.3119C17.5671 21.5311 17.398 21.7225 17.196 21.8745C16.994 22.0265 16.7633 22.136 16.5178 22.1963C16.2723 22.2566 16.0171 22.2666 15.7676 22.2255C15.5181 22.1844 15.2796 22.0932 15.0664 21.9573C14.8532 21.8215 14.6697 21.6438 14.5271 21.4351C14.3845 21.2263 14.2857 20.9908 14.2367 20.7428C14.1876 20.4948 14.1894 20.2394 14.2418 19.9921C14.2942 19.7448 14.3963 19.5106 14.5417 19.3039L12.6452 15.888C12.3089 15.906 11.9739 15.8329 11.6757 15.6763C11.3774 15.5198 11.127 15.2856 10.9509 14.9985C10.7747 14.7115 10.6793 14.3821 10.6748 14.0454C10.6703 13.7086 10.7568 13.3768 10.9252 13.0851C11.0936 12.7934 11.3377 12.5526 11.6316 12.3881C11.9255 12.2237 12.2584 12.1416 12.5951 12.1506C12.9318 12.1596 13.2598 12.2594 13.5445 12.4394C13.8292 12.6194 14.06 12.8729 14.2125 13.1732L18.1191 13.1077C18.1593 13.0208 18.2066 12.9374 18.2603 12.8581L14.89 7.07954C14.4682 7.11141 14.048 6.99933 13.698 6.76159C13.3481 6.52385 13.0891 6.1745 12.9633 5.77058C12.8376 5.36666 12.8524 4.93203 13.0055 4.53765C13.1586 4.14327 13.4409 3.81245 13.8063 3.59919C14.1716 3.38593 14.5985 3.30284 15.0172 3.36348C15.4359 3.42412 15.8216 3.6249 16.1115 3.93306C16.4013 4.24122 16.5781 4.63853 16.6131 5.06014C16.648 5.48175 16.5389 5.90274 16.3037 6.25438L19.674 12.033C20.0116 12.0076 20.3497 12.0744 20.6523 12.2262C20.9549 12.378 21.2107 12.609 21.3923 12.8947C21.5739 13.1804 21.6746 13.5101 21.6835 13.8485C21.6925 14.1869 21.6095 14.5214 21.4433 14.8163C21.2771 15.1112 21.0339 15.3555 20.7398 15.5231C20.4457 15.6907 20.1116 15.7753 19.7731 15.768C19.4346 15.7606 19.1045 15.6615 18.818 15.4812C18.5314 15.301 18.2992 15.0463 18.146 14.7445L14.2394 14.81C14.1938 14.9091 14.1391 15.0038 14.0761 15.0929L15.9726 18.5088C16.309 18.4906 16.6441 18.5636 16.9425 18.7202C17.2408 18.8767 17.4914 19.1109 17.6676 19.398C17.8438 19.6852 17.9392 20.0146 17.9437 20.3515C17.9482 20.6884 17.8616 21.0202 17.6931 21.3119Z" fill="white"/>
</g>
<defs>
<clipPath id="clip0_2638_6487">
<rect width="19.9504" height="19.9504" fill="white" transform="translate(0.849609 18.0664) rotate(-60)"/>
</clipPath>
</defs>
</svg>
